<svg width="651" height="549" xmlns="http://www.w3.org/2000/svg" data-name="Layer 1">
 <g>
  <title>Layer 1</title>
  <path d="m577.59588,549.15548l-166.00781,0a35.03577,35.03577 0 0 1 -34.99609,-34.99609l0,-256.00781a35.03577,35.03577 0 0 1 34.99609,-34.9961l166.00781,0a35.03578,35.03578 0 0 1 34.9961,34.9961l0,256.00781a35.03578,35.03578 0 0 1 -34.9961,34.99609z" fill="#fff" id="svg_31"/>
  <path d="m559.59588,523.73263l-130.00781,0a34.53528,34.53528 0 0 1 -34.49609,-34.49609l0,-206.16165a34.53528,34.53528 0 0 1 34.49609,-34.4961l130.00781,0a34.53529,34.53529 0 0 1 34.4961,34.4961l0,206.16165a34.53529,34.53529 0 0 1 -34.4961,34.49609z" fill="#FAB131" id="svg_32"/>
  <rect x="378.06439" y="448.69893" width="234" height="54" fill="#191919" id="svg_33"/>
  <path d="m46.30853,319.07455l-39.62386,-50.94474a31.728,31.728 0 0 1 5.56571,-44.52646l160.49068,-124.82666a60.5949,60.5949 0 0 1 32.60182,-12.61793l13.536,-1.04807l116.55351,-68.26853a9.996,9.996 0 0 1 16.97833,-10.30179l33.15288,42.62495a9.997,9.997 0 0 1 -14.218,13.87861l-95.34249,95.34248a60.34767,60.34767 0 0 1 -22.94074,40.0764l-162.22737,126.17745a31.72818,31.72818 0 0 1 -44.52647,-5.56571z" fill="#fff" id="svg_34"/>
  <path d="m577.59588,549.15548l-166.00781,0a35.03577,35.03577 0 0 1 -34.99609,-34.99609l0,-256.00781a35.03577,35.03577 0 0 1 34.99609,-34.9961l166.00781,0a35.03578,35.03578 0 0 1 34.9961,34.9961l0,256.00781a35.03578,35.03578 0 0 1 -34.9961,34.99609zm-166.00781,-324a33.03333,33.03333 0 0 0 -32.99609,32.9961l0,256.00781a33.03333,33.03333 0 0 0 32.99609,32.99609l166.00781,0a33.03333,33.03333 0 0 0 32.9961,-32.99609l0,-256.00781a33.03334,33.03334 0 0 0 -32.9961,-32.9961l-166.00781,0z" fill="#191919" id="svg_35"/>
  <path d="m381.83883,12.19009a60.14854,60.14854 0 0 1 55.51,5.23249c16.74918,10.75321 29.22812,30.12631 33.39641,51.84669c2.04279,10.64465 2.78168,23.02582 10.22822,29.65246c5.454,4.85347 12.88044,4.97993 19.44423,7.32643c19.4113,6.93936 29.42921,33.87724 26.60218,57.27111s-15.41425,43.54143 -28.92345,61.17967c4.29544,-9.478 -1.28153,-21.77024 -9.43928,-26.74412s-17.87974,-4.5558 -27.06281,-3.73282s-18.75314,1.86606 -27.31634,-2.07914c-14.63242,-6.74138 -22.03956,-26.2758 -23.14457,-44.53922s2.54651,-36.46417 2.80834,-54.77025s-3.80279,-38.35988 -16.4469,-49.2614c-5.81489,-5.01349 -13.01028,-7.68789 -18.41929,-13.28257s-8.31225,-16.21469 -3.25818,-22.24181" fill="#FAB131" id="svg_36"/>
  <path d="m585.06439,214.69894c-0.52344,0 -1.04248,0.01861 -1.5586,0.048a27.00656,27.00656 0 0 0 -37.03027,-33.43835c-4.32764,-12.18189 -13.62988,-20.60968 -24.41113,-20.60968s-20.0835,8.42779 -24.41114,20.60968a27.03631,27.03631 0 0 0 -23.17773,0c-4.32764,-12.18189 -13.62988,-20.60968 -24.41113,-20.60968s-20.0835,8.42779 -24.41114,20.60968a27.00641,27.00641 0 0 0 -37.02441,33.45489c-0.51807,-0.03949 -1.03906,-0.06457 -1.56445,-0.06457c-14.91162,0 -27,16.11774 -27,36s12.08838,36 27,36c12.28125,0 22.64013,-10.93683 25.91553,-25.90131a27.01184,27.01184 0 0 0 30.67333,5.29163c4.32764,12.18188 13.62989,20.60968 24.41114,20.60968c12.28125,0 22.64013,-10.93683 25.91553,-25.90131a27.01184,27.01184 0 0 0 30.67333,5.29163c4.32764,12.18188 13.62989,20.60968 24.41114,20.60968s20.08349,-8.4278 24.41113,-20.60968a27.00151,27.00151 0 1 0 11.58887,-51.39032l0,0.00003z" fill="#f0f0f0" id="svg_37"/>
  <circle cx="441.06439" cy="286.69893" r="5" fill="#fff" id="svg_38"/>
  <circle cx="472.06439" cy="371.69893" r="5" fill="#fff" id="svg_39"/>
  <circle cx="504.06439" cy="313.69893" r="5" fill="#fff" id="svg_40"/>
  <circle cx="468.06439" cy="331.69893" r="5" fill="#fff" id="svg_41"/>
  <circle cx="531.06439" cy="385.69893" r="5" fill="#fff" id="svg_42"/>
  <circle cx="549.06439" cy="286.69893" r="5" fill="#fff" id="svg_43"/>
  <path d="m54.67916,306.83129l-34.06728,-43.80059a26.91882,26.91882 0 0 1 4.72231,-37.77773l137.98454,-107.3218a51.74108,51.74108 0 0 1 27.83715,-10.774l11.7203,-0.90751l108.03483,-63.27886l29.04392,37.342l-88.41667,88.417a51.52947,51.52947 0 0 1 -19.60365,34.34031l-139.47768,108.48314a26.91863,26.91863 0 0 1 -37.77777,-4.722l0,0.00004z" fill="#FAB131" id="svg_46"/>
  <path d="m375.89401,50.37596c3.31571,0.93034 7.5724,-0.00321 11.14086,-2.77869c5.23137,-4.06887 6.99845,-10.54784 3.94672,-14.47146a6.94635,6.94635 0 0 0 -2.02791,-1.75443a8.04153,8.04153 0 0 0 -1.12951,-7.19156a6.871,6.871 0 0 0 -1.37916,-1.3299c3.4408,-4.76269 4.731,-9.02 2.95783,-11.29974a5.04308,5.04308 0 0 0 -4.08493,-1.62119a7.55367,7.55367 0 0 0 -1.44055,-5.483c-2.57688,-3.31311 -7.76414,-3.733 -12.46644,-1.33693c-0.05638,-0.07925 -0.10294,-0.16427 -0.1632,-0.24174c-3.05172,-3.92363 -9.76631,-3.80572 -14.99769,0.26315a13.93994,13.93994 0 0 0 -5.22486,7.94171a13.93992,13.93992 0 0 0 -8.98345,3.10925c-5.23138,4.06887 -6.99846,10.54784 -3.94673,14.47147c0.1349,0.17344 0.28506,0.32882 0.43384,0.48652l-0.062,0.06431c-0.118,-0.18659 -0.23424,-0.37392 -0.37183,-0.55083c-3.05173,-3.92363 -9.76632,-3.80572 -14.9977,0.26315a13.93987,13.93987 0 0 0 -5.22485,7.94171a13.93993,13.93993 0 0 0 -8.98346,3.10925c-5.23138,4.06887 -6.99845,10.54784 -3.94673,14.47147s9.76632,3.80571 14.99769,-0.26315a8.98706,8.98706 0 0 0 1.66848,15.2278c-1.10511,2.66024 -1.21419,4.90209 -0.08973,6.34782c1.77318,2.27979 6.217,2.0772 11.68014,-0.0854a6.87074,6.87074 0 0 0 0.9495,1.66408c3.05173,3.92362 9.76632,3.80571 14.99769,-0.26315a13.94232,13.94232 0 0 0 5.22516,-7.94133a13.94236,13.94236 0 0 0 8.98316,-3.10964a15.49376,15.49376 0 0 0 3.14678,-3.28383a15.494,15.494 0 0 0 3.95738,-2.24165c3.56845,-2.77545 5.52105,-6.67138 5.4355,-10.11407z" fill="#f0f0f0" id="svg_47"/>
  <path d="m46.30853,319.07455l-39.62386,-50.94474a31.728,31.728 0 0 1 5.56571,-44.52646l160.49068,-124.82666a60.5949,60.5949 0 0 1 32.60182,-12.61793l13.536,-1.04807l116.55351,-68.26853a9.996,9.996 0 0 1 16.97833,-10.30179l33.15288,42.62495a9.997,9.997 0 0 1 -14.218,13.87861l-95.34249,95.34248a60.34767,60.34767 0 0 1 -22.94074,40.0764l-162.22737,126.17745a31.72818,31.72818 0 0 1 -44.52647,-5.56571zm304.52349,-311.3063a7.99552,7.99552 0 0 0 -13.21121,8.94966l0.50692,0.86331l-118.635,69.48775l-13.99516,1.08368a58.60218,58.60218 0 0 0 -31.52859,12.20275l-160.49072,124.82665a29.72788,29.72788 0 0 0 -5.21489,41.71988l39.62387,50.94474a29.72768,29.72768 0 0 0 41.71988,5.21489l162.2274,-126.17745a58.36536,58.36536 0 0 0 22.22785,-39.08737l0.04257,-0.34055l97.20674,-97.20691l0.707,0.7086a7.99653,7.99653 0 0 0 11.96621,-10.56468l-33.15287,-42.62495z" fill="#191919" id="svg_48"/>
  <path d="m81.97033,171.91036l76.12892,97.8796l55.25456,-42.976l-76.12892,-97.8796l-55.25456,42.976z" fill="#191919" id="svg_50"/>
  <circle cx="304.15295" cy="77.85595" r="5" fill="#fff" id="svg_51"/>
  <circle cx="264.68536" cy="85.74956" r="5" fill="#fff" id="svg_52"/>
  <circle cx="267.05349" cy="118.113" r="5" fill="#fff" id="svg_53"/>
  <circle cx="227.58589" cy="126.00661" r="5" fill="#fff" id="svg_54"/>
  <circle cx="433.06439" cy="66.69893" r="5" fill="#fff" id="svg_55"/>
  <circle cx="451.06439" cy="93.69893" r="5" fill="#fff" id="svg_56"/>
  <circle cx="451.06439" cy="138.69893" r="5" fill="#fff" id="svg_57"/>
  <polygon points="379.85788345336914,173.47802734375 379.85788345336914,173.47802734375 379.85788345336914,173.47802734375 379.85788345336914,173.47802734375 " fill="#f2f2f2" id="svg_58"/>
  <path d="m378.15817,173.50858c-5.53171,0.17315 -23.24738,1.33352 -32.45121,9.064c-10.99524,9.23529 -10.99569,18.0055 -5.66758,24.34912s13.96639,7.85835 24.96212,-1.3769c9.32062,-7.82832 13.513,-25.42051 14.57462,-30.60051l-1.41795,-1.43571z" fill="#f2f2f2" id="svg_59"/>
  <polygon points="519.2678565979004,60.98102569580078 519.2678565979004,60.98102569580078 519.2678565979004,60.98102569580078 519.2678565979004,60.98102569580078 " fill="#f2f2f2" id="svg_60"/>
  <path d="m520.33116,62.3073c3.51955,4.27112 15.27056,17.57921 27.01531,20.13477c14.0309,3.05282 20.97066,-2.30967 22.732,-10.40459s-2.32226,-15.85626 -16.35343,-18.90949c-11.89362,-2.58812 -28.37715,4.852 -33.125,7.17946l-0.26888,1.99985z" fill="#f2f2f2" id="svg_61"/>
  <polygon points="610.1108741760254,191.61903381347656 610.1108741760254,191.61903381347656 610.1108741760254,191.61903381347656 610.1108741760254,191.61903381347656 " fill="#f2f2f2" id="svg_62"/>
  <path d="m610.28846,193.31017c0.65015,5.49609 3.33589,23.0454 11.83217,31.54735c10.15021,10.15674 18.8877,9.3999 24.74756,3.54394s6.623,-14.59278 -3.52717,-24.75c-8.60389,-8.60986 -26.49238,-11.26757 -31.7447,-11.87792l-1.30786,1.53663z" fill="#f2f2f2" id="svg_63"/>
 </g>

</svg>